<?xml version="1.0" encoding="utf-8"?><svg viewBox="0 0 210 90" xmlns="http://www.w3.org/2000/svg" xmlns:xlink="http://www.w3.org/1999/xlink"><style>:root>svg{display:none}:root>svg:target{display:block}</style><svg fill="none" viewBox="0 0 86 27" id="hero-airbnb" xmlns="http://www.w3.org/2000/svg"><path d="M45.399 6.705a1.727 1.727 0 1 1-3.452 0c0-.961.743-1.736 1.725-1.736.983.027 1.727.801 1.727 1.736Zm-7.117 3.5v.427s-.823-1.069-2.576-1.069c-2.894 0-5.151 2.218-5.151 5.29 0 3.045 2.23 5.288 5.151 5.288 1.78 0 2.576-1.095 2.576-1.095v.454c0 .214.16.374.372.374h2.15V9.83h-2.15a.383.383 0 0 0-.372.375Zm0 6.437c-.398.588-1.195 1.096-2.15 1.096-1.7 0-3.001-1.069-3.001-2.886 0-1.816 1.301-2.885 3-2.885.93 0 1.78.535 2.15 1.096v3.58Zm4.116-6.812h2.549v10.045h-2.55V9.83Zm38.078-.267c-1.752 0-2.576 1.069-2.576 1.069V4.996h-2.549v14.879h2.151a.38.38 0 0 0 .372-.375v-.453s.823 1.095 2.575 1.095c2.895 0 5.152-2.244 5.152-5.289 0-3.045-2.257-5.29-5.125-5.29Zm-.424 8.148c-.983 0-1.753-.507-2.152-1.095v-3.58c.399-.534 1.248-1.095 2.151-1.095 1.7 0 3 1.068 3 2.885 0 1.816-1.3 2.885-3 2.885Zm-6.028-3.793V19.9h-2.55v-5.69c0-1.655-.53-2.324-1.964-2.324-.77 0-1.566.401-2.072.989v6.999H64.89V9.83h2.017c.213 0 .372.187.372.374v.427c.744-.775 1.726-1.069 2.708-1.069 1.116 0 2.045.321 2.789.962.902.748 1.248 1.71 1.248 3.393ZM58.702 9.563c-1.752 0-2.576 1.069-2.576 1.069V4.996h-2.549v14.879h2.15a.381.381 0 0 0 .373-.375v-.453s.823 1.095 2.575 1.095c2.895 0 5.152-2.244 5.152-5.289.026-3.046-2.23-5.29-5.125-5.29Zm-.425 8.148c-.983 0-1.752-.507-2.15-1.095v-3.58c.398-.534 1.247-1.095 2.15-1.095 1.7 0 3 1.068 3 2.885 0 1.816-1.3 2.885-3 2.885Zm-6.904-8.148c.77 0 1.168.134 1.168.134v2.377s-2.124-.721-3.451.802V19.9h-2.55V9.831h2.151a.38.38 0 0 1 .372.373v.428c.478-.561 1.514-1.069 2.31-1.069ZM24.9 18.966c-.132-.32-.265-.668-.398-.962-.213-.48-.425-.935-.61-1.362l-.027-.026a279.186 279.186 0 0 0-5.869-12.074l-.08-.16c-.217-.416-.43-.835-.636-1.256-.266-.481-.531-.988-.956-1.47C15.473.588 14.25 0 12.95 0c-1.327 0-2.522.588-3.398 1.603-.399.48-.69.988-.956 1.469-.207.421-.42.84-.637 1.256l-.08.16c-2.045 4.007-4.036 8.067-5.868 12.074l-.027.053c-.186.428-.399.882-.611 1.362-.133.294-.265.615-.398.962-.345.988-.452 1.923-.319 2.885a5.671 5.671 0 0 0 3.452 4.434c.691.295 1.408.428 2.151.428a6.986 6.986 0 0 0 3.346-.961c1.09-.615 2.125-1.496 3.293-2.778 1.168 1.282 2.23 2.163 3.293 2.778a6.988 6.988 0 0 0 3.346.961c.743 0 1.487-.133 2.15-.427 1.86-.749 3.16-2.458 3.453-4.435.21-.935.104-1.87-.24-2.858Zm-11.975 1.39c-1.434-1.817-2.364-3.527-2.682-4.969-.133-.614-.16-1.149-.08-1.63.053-.427.213-.801.425-1.122.505-.72 1.354-1.175 2.337-1.175.983 0 1.859.428 2.337 1.175.213.32.372.695.425 1.123.08.48.053 1.041-.08 1.63-.32 1.414-1.249 3.124-2.682 4.967Zm10.594 1.255a3.966 3.966 0 0 1-2.416 3.125c-.637.267-1.328.348-2.018.267a5.21 5.21 0 0 1-2.018-.694c-.956-.535-1.912-1.362-3.027-2.591 1.752-2.164 2.815-4.141 3.213-5.904a6.722 6.722 0 0 0 .133-2.27 4.348 4.348 0 0 0-.717-1.817c-.824-1.203-2.205-1.897-3.744-1.897-1.54 0-2.921.722-3.744 1.897a4.35 4.35 0 0 0-.717 1.816c-.106.695-.08 1.47.132 2.271.398 1.763 1.487 3.767 3.213 5.93-1.089 1.229-2.071 2.057-3.027 2.592-.69.4-1.354.614-2.018.694a4.224 4.224 0 0 1-2.018-.267 3.966 3.966 0 0 1-2.416-3.126 4.444 4.444 0 0 1 .239-2.083c.08-.267.212-.534.345-.855.186-.427.398-.882.61-1.336l.027-.053c1.832-3.98 3.797-8.04 5.842-11.993l.08-.161c.212-.4.425-.828.637-1.229.212-.427.451-.828.743-1.175.558-.64 1.301-.989 2.125-.989.823 0 1.566.348 2.124.989.292.348.531.749.744 1.175.212.401.425.829.637 1.229l.08.16a354.726 354.726 0 0 1 5.815 12.021v.027c.213.428.398.908.61 1.336.134.32.267.587.346.854.212.694.292 1.362.185 2.057Z" fill="#718087"/></svg><svg fill="none" viewBox="0 0 71 24" id="hero-buzz" xmlns="http://www.w3.org/2000/svg"><path d="M14.681 11.845c1.18.095 2.172.57 3.022 1.47.85.901 1.274 2.134 1.274 3.7 0 1.896-.613 3.461-1.888 4.6-1.274 1.137-3.068 1.706-5.476 1.706H0V.843h11.566c2.03 0 3.682.57 4.91 1.66 1.227 1.138 1.84 2.608 1.84 4.458 0 1.422-.377 2.513-1.18 3.367-.802.853-1.605 1.28-2.502 1.375l.047.142Zm-9.158-1.707h4.815c.803 0 1.464-.237 1.983-.711.472-.475.755-1.044.755-1.85 0-.711-.236-1.233-.708-1.66-.472-.427-1.085-.616-1.793-.616H5.523v4.837Zm5.099 8.726c.85 0 1.558-.238 2.03-.664.472-.427.708-1.044.708-1.85 0-.759-.236-1.328-.756-1.754-.472-.427-1.133-.664-1.888-.664H5.523v4.932h5.099Zm27.474 4.457h-5.334V21.71c-1.322 1.423-3.069 2.134-5.146 2.134-1.982 0-3.54-.664-4.72-1.944-1.18-1.28-1.794-2.988-1.794-5.075V6.487h5.287v9.2c0 .996.283 1.802.803 2.419.519.616 1.227.9 2.077.9 1.085 0 1.935-.378 2.549-1.137.613-.759.897-1.945.897-3.557V6.486h5.334l.047 16.835Zm16.476 0H40.41v-.995l6.656-11.572h-6.468V6.486h13.88v.996L47.82 19.053h6.704v4.268h.047Zm16.428 0H56.885v-.995l6.609-11.572h-6.467V6.486h13.879v.996l-6.657 11.571h6.704L71 23.321Z" fill="#718087"/></svg><svg fill="none" viewBox="0 0 98 19" id="hero-chese" xmlns="http://www.w3.org/2000/svg"><path d="M32.919.292v7.186H22.908V.292L19.262.289v18.118h3.646v-7.784h10.011v7.784h3.652V.292H32.92ZM81.426.293v18.11h15.996l-2.026-3.188H85.082v-4.591h9.988v-3.07h-9.988V3.405H95.38L97.364.293H81.426ZM5.708.288C1.916.288 0 2.594 0 5.948v6.764c0 3.882 2.469 5.695 5.69 5.695h11.44l-2.121-3.313H6.396c-1.83 0-2.626-.66-2.626-2.709V6.25c0-1.979.67-2.751 2.675-2.751h8.653l2.037-3.21H5.708ZM65.423.283c-2.19 0-4.435 1.317-4.435 4.703v.87c0 3.53 2.16 4.878 4.321 4.887h7.587c.787 0 1.427.13 1.427 1.463v1.538c-.02 1.197-.617 1.47-1.455 1.47h-9.98l-2.044 3.189h12.26c2.956 0 4.963-1.471 4.963-4.868v-1.249c0-3.284-1.865-4.836-4.756-4.836h-7.244c-.803 0-1.363-.22-1.363-1.409V4.788c0-1.013.384-1.382 1.32-1.382l9.504-.004L77.515.279 65.423.283ZM47.165.293l-8.59 18.114h4.06l1.673-3.741h9.335l1.668 3.74h4.078L50.778.294h-3.613Zm1.801 3.76 3.301 7.53h-6.58l3.28-7.53Z" fill="#718087"/></svg><svg fill="none" viewBox="0 0 48 19" id="hero-cisco" xmlns="http://www.w3.org/2000/svg"><path fill-rule="evenodd" clip-rule="evenodd" d="M14.449 5.72S15.766 3.983 18.824 4c3.059.016 5.895 2.063 5.829 5.586a6.73 6.73 0 0 1-.082.933c.818-2.203 4.859-2.503 6.066-2.511.71 0 2.84-.008 2.84-.008.01-1.43-.442-2.387-2.922-2.43C28.44 5.53 27.898 6.586 27.77 7h-2.59c.66-3.398 5.543-2.984 5.543-2.984 5.086.2 5.211 2.815 5.27 4.047l.007.132V15l-2.254.012-.101-1.832c-.961 1.16-2.254 1.808-4.524 1.82-2.21.011-5.017-.906-4.695-3.82-.7 2.492-2.937 3.82-5.653 3.82-3.245 0-4.355-1.734-4.355-1.734L14.316 15H12v-5H2.44s.138 3.399 3.63 3.464c2.715.048 3.207-1.78 3.207-1.78l2.508-.008S11.519 15 6.059 15C-.293 15 .004 9.703.004 9.703-.027 8.527-.004 4 6 4c5.024 0 5.88 3.43 6 5.104V0h2.449v5.72Zm.016 3.823s-.063 3.934 3.8 3.887c3.86-.047 3.868-3.805 3.868-3.805s.058-4.148-3.875-4.05c-3.933.097-3.793 3.968-3.793 3.968ZM6.148 5.551c-3.453 0-3.625 2.965-3.625 2.965h7.063s0-2.97-3.438-2.965Zm20.797 6.094c.145 1.871 2.602 1.867 2.602 1.867 4.402.054 3.953-3.949 3.956-3.949l-2.78.003s-3.93.082-3.778 2.079Z" fill="#666"/><path d="M34.438 4h2.804l4.106 8.184L45.465 4H48l-7.426 15H37.86l2.149-4.465L34.438 4Z" fill="#666"/></svg><svg fill="none" viewBox="0 0 48 19" id="hero-ebay" xmlns="http://www.w3.org/2000/svg"><path fill-rule="evenodd" clip-rule="evenodd" d="M14.449 5.72S15.766 3.983 18.824 4c3.059.016 5.895 2.063 5.829 5.586a6.73 6.73 0 0 1-.082.933c.818-2.203 4.859-2.503 6.066-2.511.71 0 2.84-.008 2.84-.008.01-1.43-.442-2.387-2.922-2.43C28.44 5.53 27.898 6.586 27.77 7h-2.59c.66-3.398 5.543-2.984 5.543-2.984 5.086.2 5.211 2.815 5.27 4.047l.007.132V15l-2.254.012-.101-1.832c-.961 1.16-2.254 1.808-4.524 1.82-2.21.011-5.017-.906-4.695-3.82-.7 2.492-2.937 3.82-5.653 3.82-3.245 0-4.355-1.734-4.355-1.734L14.316 15H12v-5H2.44s.138 3.399 3.63 3.464c2.715.048 3.207-1.78 3.207-1.78l2.508-.008S11.519 15 6.059 15C-.293 15 .004 9.703.004 9.703-.027 8.527-.004 4 6 4c5.024 0 5.88 3.43 6 5.104V0h2.449v5.72Zm.016 3.823s-.063 3.934 3.8 3.887c3.86-.047 3.868-3.805 3.868-3.805s.058-4.148-3.875-4.05c-3.933.097-3.793 3.968-3.793 3.968ZM6.148 5.551c-3.453 0-3.625 2.965-3.625 2.965h7.063s0-2.97-3.438-2.965Zm20.797 6.094c.145 1.871 2.602 1.867 2.602 1.867 4.402.054 3.953-3.949 3.956-3.949l-2.78.003s-3.93.082-3.778 2.079Z" fill="#666"/><path d="M34.438 4h2.804l4.106 8.184L45.465 4H48l-7.426 15H37.86l2.149-4.465L34.438 4Z" fill="#666"/></svg><svg fill="none" viewBox="0 0 97 24" id="hero-gucc" xmlns="http://www.w3.org/2000/svg"><path opacity=".8" d="M21.985 16.206v4.959c-1.803 1.585-6.11 2.528-9.317 2.528C9.466 23.693.601 21.709.601 12.39c0-9.32 8.438-11.328 11.841-11.328 3.408 0 7.038.618 9.14 2.008v4.361c0 .545-.751.496-.751 0-.05-.743-2.053-5.202-7.062-5.104-5.408.11-9.062 4.316-9.062 9.864 0 5.547 3.551 10.31 8.914 10.16 1.74-.048 3.556-.593 4.434-1.316l.02-4.829c0-1.386-.85-1.882-1.7-1.882-.553 0-.553-.792 0-.792h7.31c.55 0 .55.841 0 .792-.846 0-1.7.496-1.7 1.882Zm49.274-8.77c0 .544-.55.495-.55 0-.053-.744-2.053-5.353-7.062-5.252-5.407.106-9.066 4.463-9.066 10.01 0 5.548 3.507 10.458 8.865 10.312 5.358-.15 7.912-5.402 8.113-6.097.201-.695.55-.593.55-.048v4.064c-2.2 1.585-6.36 3.272-9.562 3.272-3.203 0-12.068-1.984-12.068-11.303C50.48 3.07 58.892.843 62.296.843c3.408 0 6.861.841 8.967 2.227v4.365h-.004ZM48.574 1.387c.8 0 .8.743 0 .743-.85 0-1.7.496-1.7 1.882l-.098 10.832c0 5.186-4.25 8.998-9.493 8.998s-9.337-3.812-9.337-8.998V4.013c0-1.39-.854-1.882-1.704-1.882-.8 0-.8-.743 0-.743h7.411c.801 0 .801.743 0 .743-.854 0-1.703.496-1.703 1.882L31.94 16.11c0 3.657 3.022 6.624 6.717 6.624 3.696 0 6.693-3.71 6.693-7.364l-.18-11.356c0-1.39-.85-1.882-1.704-1.882-.797 0-.797-.743 0-.743h5.107Zm47.173 6.047c0 .545-.55.496-.55 0-.05-.743-2.053-5.352-7.062-5.25-5.408.105-9.066 4.462-9.066 10.01 0 5.547 3.506 10.457 8.864 10.31 5.359-.145 7.912-5.4 8.114-6.096.2-.695.554-.593.554-.048v4.064c-2.205 1.585-6.36 3.272-9.567 3.272-3.202 0-12.067-1.984-12.067-11.303C74.967 3.07 83.38.843 86.787.843c3.405 0 6.862.841 8.964 2.227v4.365h-.004Z" fill="#718087"/></svg><svg fill="none" viewBox="0 0 95 21" id="hero-microsoft" xmlns="http://www.w3.org/2000/svg"><path d="M94.6 9.386V7.73h-2.056V5.155l-.07.021-1.969.603v1.95h-3.05V6.643c-.029-.412.09-.82.337-1.152a1.185 1.185 0 0 1 .942-.385c.309.004.614.073.894.203l.076.034V3.6l-.036-.013a3.484 3.484 0 0 0-1.143-.152 3.348 3.348 0 0 0-1.62.39 2.77 2.77 0 0 0-1.112 1.098 3.277 3.277 0 0 0-.393 1.613V7.73h-1.432v1.656H85.4v6.977h2.056V9.386h3.049v4.433c0 1.827.861 2.751 2.56 2.751.294-.002.586-.034.873-.096.22-.038.434-.106.636-.202l.027-.016v-1.672l-.084.056a1.44 1.44 0 0 1-.413.178c-.132.04-.268.064-.406.07a1.101 1.101 0 0 1-.875-.32 1.716 1.716 0 0 1-.28-1.106V9.386H94.6Zm-15.224 5.502a2.18 2.18 0 0 1-1.75-.735 3.12 3.12 0 0 1-.628-2.075 3.244 3.244 0 0 1 .628-2.13A2.146 2.146 0 0 1 79.36 9.2a2.114 2.114 0 0 1 1.686.713 3.18 3.18 0 0 1 .616 2.113 3.39 3.39 0 0 1-.58 2.14 2.062 2.062 0 0 1-1.706.721Zm.09-7.37a4.51 4.51 0 0 0-3.36 1.24 4.651 4.651 0 0 0-1.214 3.385 4.404 4.404 0 0 0 1.185 3.231 4.302 4.302 0 0 0 3.182 1.194 4.387 4.387 0 0 0 3.294-1.257 4.637 4.637 0 0 0 1.214-3.351 4.524 4.524 0 0 0-1.139-3.254 4.195 4.195 0 0 0-3.161-1.186v-.002Zm-7.889.002a3.717 3.717 0 0 0-2.382.736 2.35 2.35 0 0 0-.927 1.916c-.008.367.06.731.2 1.07.138.313.348.588.614.802.383.288.803.523 1.248.7.356.14.703.301 1.04.483.176.093.332.22.457.376a.844.844 0 0 1 .127.49c0 .58-.434.863-1.328.863a3.652 3.652 0 0 1-1.124-.206 4.223 4.223 0 0 1-1.15-.583l-.086-.061v1.98l.03.014c.35.153.716.265 1.09.336.383.084.773.129 1.165.134a3.946 3.946 0 0 0 2.514-.74 2.395 2.395 0 0 0 .936-1.962 2.256 2.256 0 0 0-.504-1.483 4.317 4.317 0 0 0-1.71-1.09 4.414 4.414 0 0 1-1.22-.634.89.89 0 0 1-.246-.665.741.741 0 0 1 .312-.615c.256-.177.564-.264.875-.247.353.002.704.056 1.042.16.323.094.63.236.91.422l.083.057V7.898l-.032-.014a4.485 4.485 0 0 0-.923-.257 5.638 5.638 0 0 0-1.013-.105l.002-.002Zm-8.669 7.368a2.181 2.181 0 0 1-1.749-.735 3.12 3.12 0 0 1-.628-2.073 3.243 3.243 0 0 1 .629-2.13 2.145 2.145 0 0 1 1.732-.747 2.114 2.114 0 0 1 1.687.713 3.18 3.18 0 0 1 .616 2.113 3.391 3.391 0 0 1-.58 2.14 2.061 2.061 0 0 1-1.706.72Zm.093-7.367a4.508 4.508 0 0 0-3.361 1.24 4.65 4.65 0 0 0-1.215 3.384 4.401 4.401 0 0 0 1.186 3.232 4.299 4.299 0 0 0 3.181 1.193 4.385 4.385 0 0 0 3.294-1.257 4.636 4.636 0 0 0 1.215-3.35 4.523 4.523 0 0 0-1.14-3.255 4.194 4.194 0 0 0-3.16-1.186v-.001Zm-7.696 1.704V7.73h-2.031v8.633h2.03v-4.416c-.028-.65.149-1.292.507-1.834a1.553 1.553 0 0 1 1.315-.694c.206.003.411.033.61.09.168.036.328.101.474.19l.085.063V7.715l-.033-.014a2.102 2.102 0 0 0-.795-.121 2.081 2.081 0 0 0-1.358.487 2.75 2.75 0 0 0-.782 1.159h-.022Zm-5.668-1.703a5.013 5.013 0 0 0-2.47.593A4 4 0 0 0 45.54 9.79a5.334 5.334 0 0 0-.56 2.481c-.01.776.177 1.541.544 2.225a3.821 3.821 0 0 0 1.52 1.536 4.525 4.525 0 0 0 2.22.54 4.861 4.861 0 0 0 2.452-.574l.026-.015v-1.86l-.085.062c-.304.22-.639.394-.994.517-.312.116-.64.18-.973.189a2.5 2.5 0 0 1-1.901-.741 2.882 2.882 0 0 1-.701-2.053 2.99 2.99 0 0 1 .73-2.108 2.487 2.487 0 0 1 1.906-.786c.7.01 1.377.247 1.933.673l.085.061v-1.96l-.028-.016a3.351 3.351 0 0 0-.94-.318 5.614 5.614 0 0 0-1.135-.122h-.001Zm-6.056.207h-2.03v8.634h2.03V7.73Zm-.994-3.678a1.224 1.224 0 0 0-.865.34 1.12 1.12 0 0 0-.363.846 1.086 1.086 0 0 0 .357.83c.236.22.547.339.87.332.322.006.635-.112.872-.33a1.083 1.083 0 0 0 .363-.832 1.14 1.14 0 0 0-.353-.837 1.211 1.211 0 0 0-.883-.349h.002Zm-5.07 3.041v9.272h2.073V4.316h-2.868l-3.646 8.948-3.539-8.948h-2.986v12.047h1.948V7.09h.067l3.736 9.272h1.47l3.68-9.272.066.001ZM9.976 9.844H.422V.29h9.554v9.554ZM20.525 9.844H10.97V.29h9.554v9.554ZM9.976 20.396H.422v-9.554h9.554v9.554ZM20.525 20.396H10.97v-9.554h9.554v9.554Z" fill="#718087"/></svg><svg fill="none" viewBox="0 0 76 17" id="hero-uber" xmlns="http://www.w3.org/2000/svg"><path d="M12.776.343h2.884v9.352c0 4.92-3.075 6.648-7.537 6.648C3.677 16.343.6 14.616.6 9.695V.718c0-.26.127-.375.382-.375h2.885v9.206c0 2.949 1.275 4.17 4.255 4.17 2.996 0 4.27-1.221 4.27-4.17V.718c0-.26.128-.375.383-.375Zm32.653 2.558v3.943h7.298c.128 0 .176.065.128.196l-.797 2.02c-.08.18-.191.26-.43.26H47.34c-1.402 0-1.912.44-1.912 1.402v2.786h9.88c.128 0 .175.065.128.196l-.83 2.101c-.079.18-.19.261-.43.261h-10.82c-.829 0-1.147-.293-1.147-.929V1.435c0-.766.414-1.092 1.498-1.092h11.601c.128 0 .175.065.128.18l-.83 2.117c-.079.18-.19.261-.43.261H45.43Zm-9.163 8.815c0 3.144-2.168 4.35-5.211 4.35H22.99c-.845 0-1.147-.293-1.147-.929V1.435c0-.766.398-1.092 1.497-1.092h6.55c2.869 0 5.642.505 5.642 3.992 0 1.499-.526 2.77-1.785 3.438 1.737.472 2.518 2.069 2.518 3.943ZM25.015 6.893h5.115c1.69 0 2.168-.668 2.168-2.037 0-1.368-.479-2.02-2.168-2.02h-5.115v4.057Zm8.016 4.53c0-1.45-.494-2.168-2.311-2.168h-3.777c-1.402 0-1.928.44-1.928 1.402v2.916h5.705c1.817 0 2.31-.717 2.31-2.15Zm42.39 4.643h-2.933c-.24 0-.335-.098-.43-.26L68.95 10.07h-2.852c-1.403 0-1.929.44-1.929 1.401v4.595h-2.804c-.255 0-.383-.13-.383-.375V1.435c0-.766.415-1.092 1.498-1.092h6.582c3.84 0 6.151 1.026 6.151 4.84 0 2.948-1.386 4.105-3.107 4.561l3.458 6.045c.063.098.063.277-.144.277ZM71.977 5.247c0-1.596-.43-2.379-2.438-2.379h-5.37v4.758h5.37c2.008 0 2.438-.766 2.438-2.379Z" fill="#718087"/></svg><svg fill="none" viewBox="0 0 22 21" id="input-icon" xmlns="http://www.w3.org/2000/svg"><path d="M20.904 6.227 18.67 4.875V.284a.262.262 0 0 0-.263-.263h-3.314a.262.262 0 0 0-.263.263v2.27L10.667.038a.24.24 0 0 0-.085-.03.263.263 0 0 0-.196.03L.157 6.228a.262.262 0 0 0-.126.224v2.165a.262.262 0 0 0 .395.227l1.54-.9v10.578h-.733a.262.262 0 0 0-.262.263v1.953c0 .145.117.262.262.262h18.595a.263.263 0 0 0 .263-.262v-1.953a.263.263 0 0 0-.263-.263h-.733V7.944l1.54.9a.262.262 0 0 0 .396-.227V6.452a.262.262 0 0 0-.127-.225Zm-5.55-5.68h2.79v4.01l-2.79-1.685V.546Zm4.212 19.928H1.496v-1.428h18.07v1.428Zm-6.673-1.953H8.168v-8.199h4.725v8.199Zm5.677 0h-5.152v-8.461a.262.262 0 0 0-.262-.263h-5.25a.262.262 0 0 0-.263.263v8.461H2.491V7.636l8.036-4.698 8.043 4.7v10.884ZM20.506 8.16l-9.847-5.753a.263.263 0 0 0-.265 0L.556 8.16V6.6l9.97-6.033 9.98 6.032V8.16Z" fill="#31353B"/></svg><svg fill="none" viewBox="0 0 90 90" id="works-instant" xmlns="http://www.w3.org/2000/svg"><rect width="90" height="90" rx="20" fill="#4DDFFD"/><path d="M39.937 56.492 38.42 58 33 52.758l3.882-3.827a5.923 5.923 0 0 1 2.863-1.571 5.95 5.95 0 0 1 3.265.18l.853.297h5.234a1.662 1.662 0 0 1 1.187.498 1.637 1.637 0 0 1 .465 1.193 1.681 1.681 0 0 1-.539 1.138c-.32.296-.744.458-1.182.451h-3.14a.636.636 0 1 0 0 1.276h3.15a3.005 3.005 0 0 0 2.068-.81c.56-.523.894-1.24.936-2.001v-.041l2.913-3.258a1.767 1.767 0 0 1 2.423-.235 1.705 1.705 0 0 1 .616 1.176 1.69 1.69 0 0 1-.418 1.258l-5.817 6.633a4.105 4.105 0 0 1-3.083 1.388l-8.739-.01Zm12.012-14.42c0-.322-.128-.63-.357-.857a1.225 1.225 0 0 0-.863-.355H48.93v-1.786a1.208 1.208 0 0 0-.376-.82 1.225 1.225 0 0 0-1.686 0c-.227.215-.362.509-.376.82v1.786h-1.799a1.228 1.228 0 0 0-1.178.734 1.204 1.204 0 0 0 .28 1.352 1.22 1.22 0 0 0 .898.335h1.799v1.785c.014.312.149.606.376.821a1.225 1.225 0 0 0 1.686 0c.227-.215.362-.51.376-.82V43.28h1.799c.323 0 .633-.128.862-.354.229-.227.358-.535.358-.856Zm-11.7-6.715v1.316h-1.324a.902.902 0 0 0-.636.262.89.89 0 0 0 0 1.263.903.903 0 0 0 .636.261h1.326v1.316a.89.89 0 0 0 .263.632.903.903 0 0 0 1.272 0 .89.89 0 0 0 .263-.631v-1.322h1.319a.903.903 0 0 0 .635-.261.89.89 0 0 0-.636-1.525h-1.325v-1.31a.89.89 0 0 0-.264-.632.903.903 0 0 0-1.271 0 .89.89 0 0 0-.264.631h.005ZM51.591 33c-.204 0-.4.08-.545.224a.763.763 0 0 0-.226.541v1.133h-1.14c-.205 0-.401.08-.546.224a.763.763 0 0 0 .546 1.307h1.14v1.132c0 .203.082.398.226.541a.774.774 0 0 0 1.316-.54v-1.133h1.14a.775.775 0 0 0 .713-.473.759.759 0 0 0-.167-.834.772.772 0 0 0-.545-.224h-1.141v-1.133a.762.762 0 0 0-.226-.54.773.773 0 0 0-.545-.225Z" fill="#fff"/></svg><svg fill="none" viewBox="0 0 210 11" id="works-left" xmlns="http://www.w3.org/2000/svg"><path opacity=".2" d="M201 5.5H9.5" stroke="url(#ka)" stroke-width="3" stroke-dasharray="5 10"/><circle cx="5.5" cy="5.5" r="5.5" transform="matrix(-1 0 0 1 11 0)" fill="#4DDFFD"/><circle cx="5.5" cy="5.5" r="5.5" transform="matrix(-1 0 0 1 210 0)" fill="#9672FF"/><defs><linearGradient id="ka" x1="196" y1="6.999" x2="4.5" y2="7.5" gradientUnits="userSpaceOnUse"><stop stop-color="#9672FF"/><stop offset="1" stop-color="#4DDFFD"/></linearGradient></defs></svg><svg fill="none" viewBox="0 0 90 90" id="works-research" xmlns="http://www.w3.org/2000/svg"><rect width="90" height="90" rx="20" fill="#9672FF"/><path d="m58 58-7.328-7.328ZM43.345 53.69c5.713 0 10.345-4.632 10.345-10.345C53.69 37.632 49.058 33 43.345 33 37.632 33 33 37.632 33 43.345c0 5.713 4.632 10.345 10.345 10.345Z" fill="#9672FF"/><path d="M57.293 58.707a1 1 0 0 0 1.414-1.414l-1.414 1.414Zm1.414-1.414-7.328-7.328-1.414 1.414 7.328 7.328 1.414-1.414ZM52.69 43.345a9.345 9.345 0 0 1-9.345 9.345v2c6.265 0 11.345-5.08 11.345-11.345h-2Zm-9.345 9.345A9.345 9.345 0 0 1 34 43.345h-2c0 6.265 5.08 11.345 11.345 11.345v-2ZM34 43.345A9.345 9.345 0 0 1 43.345 34v-2C37.079 32 32 37.08 32 43.345h2ZM43.345 34a9.345 9.345 0 0 1 9.345 9.345h2C54.69 37.079 49.61 32 43.345 32v2Z" fill="#fff"/></svg><svg fill="none" viewBox="0 0 210 11" id="works-rigth" xmlns="http://www.w3.org/2000/svg"><path opacity=".2" d="M9 5.5h191.5" stroke="url(#ma)" stroke-width="3" stroke-dasharray="5 10"/><circle cx="204.5" cy="5.5" r="5.5" fill="#4DDFFD"/><circle cx="5.5" cy="5.5" r="5.5" fill="#9672FF"/><defs><linearGradient id="ma" x1="14" y1="6.999" x2="205.5" y2="7.5" gradientUnits="userSpaceOnUse"><stop stop-color="#9672FF"/><stop offset="1" stop-color="#4DDFFD"/></linearGradient></defs></svg><svg fill="none" viewBox="0 0 90 90" id="works-track" xmlns="http://www.w3.org/2000/svg"><rect width="90" height="90" rx="20" fill="#F2B8EC"/><path d="M51.479 58V37.994H35V58h3.838v-1.187c0-1.492 1.17-2.709 2.588-2.709h3.626c1.42 0 2.598 1.217 2.598 2.71V58h3.829ZM39.55 50.848c0 .106-.02.216-.058.314a.815.815 0 0 1-.163.264.76.76 0 0 1-.549.233h-1.818a.756.756 0 0 1-.711-.497.873.873 0 0 1-.058-.314V48.95a.87.87 0 0 1 .058-.315.817.817 0 0 1 .163-.264.763.763 0 0 1 .548-.233h1.818a.751.751 0 0 1 .549.233.812.812 0 0 1 .163.264.873.873 0 0 1 .058.315v1.897Zm0-5.61c0 .105-.02.216-.058.314a.754.754 0 0 1-.712.497h-1.818a.752.752 0 0 1-.548-.233.804.804 0 0 1-.163-.264.874.874 0 0 1-.058-.315V43.33c0-.106.019-.206.058-.304a.818.818 0 0 1 .413-.447.757.757 0 0 1 .298-.061h1.818c.101 0 .205.02.299.06a.808.808 0 0 1 .414.447.82.82 0 0 1 .057.305v1.907Zm2.01-2a.869.869 0 0 1 .222-.578.762.762 0 0 1 .549-.233h1.625a.756.756 0 0 1 .712.497.873.873 0 0 1 .058.315v1.704c0 .106-.019.206-.058.304a.816.816 0 0 1-.413.447.755.755 0 0 1-.299.06h-1.625a.75.75 0 0 1-.299-.06.799.799 0 0 1-.413-.447.82.82 0 0 1-.058-.304V43.24Zm3.213 7.366c0 .107-.019.206-.057.305a.812.812 0 0 1-.414.446.756.756 0 0 1-.298.06H42.33c-.1 0-.205-.02-.298-.06a.812.812 0 0 1-.414-.446.82.82 0 0 1-.058-.305V48.85a.87.87 0 0 1 .058-.314.812.812 0 0 1 .163-.264.764.764 0 0 1 .549-.233h1.674a.751.751 0 0 1 .548.233.808.808 0 0 1 .164.264.878.878 0 0 1 .057.314v1.755Zm2.155-7.274c0-.106.02-.206.058-.304a.817.817 0 0 1 .414-.447.757.757 0 0 1 .298-.061h1.818c.1 0 .205.02.298.06a.792.792 0 0 1 .414.448.82.82 0 0 1 .057.304v1.907c0 .106-.019.217-.057.315a.754.754 0 0 1-.712.497h-1.818a.752.752 0 0 1-.548-.233.805.805 0 0 1-.164-.264.874.874 0 0 1-.058-.315V43.33Zm.472 8.268a.762.762 0 0 1-.413-.436.873.873 0 0 1-.058-.315v-1.896a.87.87 0 0 1 .057-.315.816.816 0 0 1 .164-.264.762.762 0 0 1 .548-.233h1.818a.751.751 0 0 1 .549.233.814.814 0 0 1 .163.264.873.873 0 0 1 .058.315v1.897c0 .106-.02.216-.058.314a.817.817 0 0 1-.163.264.76.76 0 0 1-.549.233h-1.818c-.1 0-.205-.02-.298-.06ZM54.953 33H39.08l-3.051 3.37h15.86L54.953 33ZM53.017 56.785 56 53.49V34.194l-2.983 3.282v19.309Z" fill="#fff"/><path d="M41.424 55.724c-.583 0-1.05.492-1.05 1.09v1.183h5.732v-1.182c0-.599-.464-1.091-1.052-1.091h-3.63Z" fill="#fff"/></svg></svg>